<svg xmlns="http://www.w3.org/2000/svg" viewBox="0 0 100 100"><circle cx="14" cy="29" r="2" fill="#ee3e54"/><circle cx="78" cy="13" r="1" fill="#f1bc19"/><circle cx="51" cy="50" r="37" fill="#fce0a2"/><circle cx="84" cy="15" r="4" fill="#f1bc19"/><circle cx="88" cy="24" r="2" fill="#ee3e54"/><circle cx="82" cy="76" r="2" fill="#fbcd59"/><circle cx="21" cy="72" r="4" fill="#fbcd59"/><circle cx="26" cy="87" r="2" fill="#ee3e54"/><circle cx="22.5" cy="55.5" r="2.5" fill="#fff"/><circle cx="29" cy="76" r="1" fill="#f1bc19"/><circle cx="81" cy="34" r="1" fill="#fff"/><path fill="#77cbd2" d="M27.727,63.5c-4.82,0-8.727-4.148-8.727-9.265c0-4.744,3.39-8.353,7.721-8.89 c0.09-0.011,0.154-0.083,0.144-0.172c-0.045-0.375-0.084-0.898-0.107-1.233c-0.395-5.745,3.907-9.265,8.727-9.265 c2.7,0,5.087,1.326,6.686,3.373c0.055,0.071,0.162,0.039,0.169-0.05c0.386-5.309,4.53-9.499,9.63-9.499 c5.355,0,9.697,4.609,9.697,10.294c0,0.83-0.122,1.624-0.303,2.394c-0.017,0.074,0.07,0.119,0.126,0.066 c1.518-1.442,3.233-2.388,5.257-2.388c3.393,0,6.302,2.284,6.463,6.019c0.005,0.107,0.097,0.187,0.206,0.176 C78.271,44.57,83,49.188,83,54.235c0,5.117-3.907,9.265-8.727,9.265s-18.424,0-18.424,0S30.167,63.5,27.727,63.5z"/><path fill="#472b29" d="M40,58.5c-0.256,0-0.512-0.098-0.707-0.293c-0.391-0.39-0.391-1.024,0-1.414l5-5 c0.391-0.391,1.023-0.391,1.414,0l5,5c0.391,0.39,0.391,1.024,0,1.414c-0.391,0.391-1.023,0.391-1.414,0L45,53.914l-4.293,4.293 C40.511,58.402,40.255,58.5,40,58.5z"/><path fill="#472b29" d="M45,73.5c-0.552,0-1-0.448-1-1v-20c0-0.552,0.448-1,1-1s1,0.448,1,1v20 C46,73.052,45.552,73.5,45,73.5z"/><g><path fill="#472b29" d="M57,73.5c-0.265,0-0.52-0.105-0.707-0.293l-5-5c-0.391-0.39-0.391-1.024,0-1.414 c0.391-0.391,1.023-0.391,1.414,0L57,71.086l4.292-4.293c0.391-0.391,1.023-0.391,1.414,0c0.391,0.39,0.391,1.024,0,1.414l-5,5 C57.52,73.394,57.266,73.5,57,73.5z"/></g><g><path fill="#472b29" d="M57,73.5c-0.552,0-1-0.448-1-1v-20c0-0.552,0.448-1,1-1s1,0.448,1,1v20 C58,73.052,57.552,73.5,57,73.5z"/></g><g><path fill="#472b29" d="M74.13,45.024c-0.237,0-0.476,0.012-0.714,0.036c-0.007,0-0.014,0.001-0.021,0.001 c-0.1,0-0.181-0.076-0.186-0.176c-0.161-3.735-3.07-6.019-6.463-6.019c-2.024,0-3.739,0.946-5.257,2.388 c-0.017,0.016-0.036,0.023-0.055,0.023c-0.044,0-0.083-0.038-0.071-0.089c0.18-0.771,0.303-1.564,0.303-2.394 c0-5.685-4.341-10.294-9.697-10.294c-5.1,0-9.244,4.19-9.63,9.499c-0.004,0.055-0.047,0.088-0.092,0.088 c-0.027,0-0.055-0.012-0.076-0.039c-1.599-2.046-3.986-3.373-6.687-3.373c-4.82,0-9.122,3.52-8.727,9.265 c0.023,0.334,0.063,0.858,0.107,1.232c0.01,0.088-0.053,0.16-0.144,0.171C22.39,45.882,19,49.491,19,54.235 c0,5.117,3.907,9.265,8.727,9.265c1.117,0,7.107,0,13.273,0c1.035,0,1.059-1.4,0-1.4H27.727c-4.04,0-7.327-3.528-7.327-7.865 c0-3.88,2.731-7.034,6.494-7.501c0.852-0.105,1.462-0.88,1.361-1.727c-0.042-0.353-0.079-0.847-0.101-1.162 c-0.149-2.174,0.469-4.071,1.789-5.484c1.356-1.452,3.375-2.285,5.541-2.285c2.141,0,4.176,1.033,5.583,2.834 c0.286,0.367,0.716,0.577,1.18,0.577c0.778,0,1.432-0.609,1.489-1.387c0.334-4.599,3.951-8.201,8.234-8.201 c4.575,0,8.297,3.99,8.297,8.894c0,0.641-0.084,1.301-0.266,2.076c-0.103,0.441-0.001,0.896,0.279,1.25 c0.281,0.354,0.702,0.558,1.155,0.558c0.381,0,0.743-0.145,1.019-0.408c1.418-1.348,2.823-2.003,4.293-2.003 c2.342,0,4.926,1.464,5.064,4.68c0.037,0.85,0.733,1.516,1.584,1.516l0.091-0.001l0.07-0.007c0.189-0.019,0.382-0.029,0.574-0.029 c3.839,0,7.469,3.796,7.469,7.811c0,4.336-3.287,7.865-7.327,7.865H60c-1.071,0-1.078,1.4,0,1.4c4.41,0,11.165,0,14.273,0 c4.82,0,8.727-4.148,8.727-9.265C83,49.435,78.725,45.024,74.13,45.024z"/></g><g><path fill="#472b29" d="M45.938,39.5c-0.008,0-0.016,0-0.024-0.001c-0.138-0.013-0.238-0.135-0.226-0.272 c0.446-4.714,3.009-6.292,4.497-6.812c2.158-0.755,4.394-0.224,5.308,0.724c0.096,0.099,0.093,0.258-0.007,0.354 c-0.098,0.096-0.256,0.093-0.354-0.006c-0.788-0.818-2.842-1.279-4.782-0.6c-1.375,0.481-3.745,1.95-4.164,6.387 C46.174,39.403,46.065,39.5,45.938,39.5z"/></g><g><path fill="#472b29" d="M28.625,59.812c-0.001,0-0.003,0-0.004,0c-1.907-0.034-3.498-0.917-4.48-2.486 c-1.025-1.638-1.171-3.717-0.379-5.425c0.059-0.125,0.208-0.18,0.332-0.122c0.125,0.058,0.18,0.207,0.122,0.332 c-0.722,1.557-0.588,3.453,0.349,4.949c0.89,1.42,2.333,2.22,4.065,2.251c0.138,0.002,0.248,0.116,0.246,0.254 C28.873,59.704,28.761,59.812,28.625,59.812z"/></g><g><path fill="#472b29" d="M25.534,50.365c-0.076,0-0.152-0.035-0.201-0.101c-0.082-0.111-0.059-0.268,0.053-0.35 c1.396-1.031,3.352-1.435,5.674-1.175c-0.597-1.465-0.925-2.833-0.976-4.073c-0.005-0.138,0.102-0.254,0.24-0.26 c0.147-0.01,0.254,0.102,0.26,0.24c0.052,1.29,0.424,2.736,1.104,4.296c0.037,0.083,0.025,0.179-0.03,0.251 c-0.056,0.072-0.147,0.108-0.234,0.096c-2.382-0.344-4.367,0.012-5.74,1.027C25.638,50.349,25.586,50.365,25.534,50.365z"/></g><g><path fill="#472b29" d="M30.537,42.885c-0.021,0-0.043-0.003-0.064-0.008c-0.133-0.036-0.213-0.173-0.177-0.306 c0.357-1.341,1.145-2.406,2.278-3.078c0.119-0.07,0.272-0.031,0.342,0.088c0.071,0.119,0.031,0.272-0.087,0.343 c-1.018,0.604-1.727,1.564-2.049,2.776C30.749,42.811,30.648,42.885,30.537,42.885z"/></g><g><path fill="#472b29" d="M38.563,40.375c-0.055,0-0.11-0.018-0.156-0.055c-1.019-0.815-2.378-1.187-3.723-1.022 c-0.141,0.017-0.262-0.081-0.279-0.218s0.081-0.262,0.217-0.279c1.478-0.184,2.973,0.229,4.097,1.127 c0.108,0.086,0.125,0.244,0.039,0.352C38.708,40.343,38.636,40.375,38.563,40.375z"/></g><g><path fill="#472b29" d="M73.75,59.25H68.5c-0.138,0-0.25-0.112-0.25-0.25s0.112-0.25,0.25-0.25h5.25 c1.626,0,2.981-0.88,3.718-2.416c0.827-1.725,0.624-3.757-0.517-5.178c-0.086-0.108-0.069-0.265,0.038-0.352 c0.109-0.085,0.266-0.069,0.352,0.039c1.261,1.57,1.487,3.81,0.578,5.707C77.108,58.241,75.549,59.25,73.75,59.25z"/></g><g><path fill="#472b29" d="M66.5,59.25h-5c-0.138,0-0.25-0.112-0.25-0.25s0.112-0.25,0.25-0.25h5 c0.138,0,0.25,0.112,0.25,0.25S66.638,59.25,66.5,59.25z"/></g></svg>