<svg width="142" height="34" viewBox="0 0 142 34" fill="none" xmlns="http://www.w3.org/2000/svg">
<path fill-rule="evenodd" clip-rule="evenodd" d="M7.4349 12.234C8.32205 6.47271 13.2999 2.06201 19.309 2.06201C25.318 2.06201 30.2958 6.47262 31.183 12.2338C35.4571 13.3181 38.6186 17.1891 38.6186 21.8004C38.6186 26.9712 34.643 31.212 29.5808 31.635C29.3272 31.6561 29.0712 31.6677 28.813 31.6694L9.86917 31.6696C4.41858 31.6696 0 27.251 0 21.8004C0 17.1893 3.16122 13.3185 7.4349 12.234ZM37.3312 21.8004C37.3312 17.4887 34.1514 13.9196 30.0089 13.3103C29.6159 7.74342 24.9754 3.34931 19.3085 3.34931C13.6415 3.34931 9.00091 7.74353 8.60807 13.3105C4.46624 13.9204 1.28715 17.4891 1.28715 21.8004C1.28715 26.54 5.12939 30.3823 9.86903 30.3823H21.4546C21.482 30.3823 21.5094 30.3822 21.5368 30.3819H24.3761L24.4202 30.3822L24.4583 30.3823H28.7493C33.4889 30.3823 37.3312 26.54 37.3312 21.8004ZM24.4583 13.2185H26.985C26.5582 9.35669 23.2841 6.35297 19.3085 6.35297C15.1381 6.35297 11.7397 9.65825 11.5899 13.7921V16.2222H9.86903C6.78826 16.2222 4.29081 18.7196 4.29081 21.8004C4.29081 24.8812 6.78826 27.3786 9.86903 27.3786H21.4546C24.5353 27.3786 27.0327 24.8813 27.0329 21.8007V20.0843H30.0365L30.0364 21.8007C30.0364 23.9302 29.2607 25.8786 27.9764 27.3786H28.7493C31.83 27.3786 34.3275 24.8812 34.3275 21.8004C34.3275 18.7196 31.83 16.2222 28.7493 16.2222H24.4583C21.3776 16.2222 18.8802 18.7198 18.8801 21.8005V23.5167H15.8765V21.8003C15.8765 17.0607 19.7187 13.2185 24.4583 13.2185Z" fill="#0444D9"/>
<path d="M47.1023 8.73298H56.4978C56.1133 7.91598 55.6808 7.14705 55.2002 6.42617L58.0116 5.94558C58.4441 6.78661 58.8767 7.72375 59.2852 8.73298H68.5605V11.1119H47.1023V8.73298ZM61.8563 11.256C64.4995 13.2985 66.7583 15.341 68.5845 17.3835L66.7342 19.2578C65.1964 17.2874 62.9857 15.1728 60.1502 12.89L61.8563 11.256ZM61.4959 15.7976L63.8027 16.8308C62.7214 18.8974 61.3997 20.6996 59.8619 22.2374C62.3129 23.8954 65.3405 25.169 68.8969 26.0581L67.335 28.4129C63.6345 27.3797 60.4866 25.8899 57.9155 23.9675C55.2723 26.034 52.1244 27.5239 48.4239 28.485L46.862 26.1782C50.4184 25.3132 53.422 23.9916 55.873 22.2615C54.2871 20.7716 52.9414 19.0656 51.8842 17.1672L54.0468 15.9418C55.008 17.7199 56.2575 19.2818 57.8194 20.6515C59.3092 19.2338 60.5347 17.6238 61.4959 15.7976ZM53.6143 11.2801L55.4405 12.866C53.6143 15.2689 51.3315 17.3355 48.6402 19.1136L47.0302 16.999C49.6254 15.3651 51.8361 13.4667 53.6143 11.2801ZM71.2037 12.1692H80.3108C80.455 10.9196 80.5511 9.64609 80.5751 8.30045V6.13782H83.1222V7.72375C83.1222 9.28565 83.0261 10.7755 82.8579 12.1692H92.4936V14.6201H83.4346C85.1647 19.6423 88.3606 23.511 93.0463 26.2503L91.4604 28.3168C86.9429 25.5294 83.747 21.6607 81.9207 16.7107C80.2867 22.0692 77.0668 26.01 72.261 28.5331L70.651 26.4185C75.5049 24.0636 78.5807 20.1228 79.8782 14.6201H71.2037V12.1692ZM97.3475 7.29122H114.649V9.71818H97.3475V7.29122ZM95.0167 13.8993H116.811V16.3983H105.445C103.451 20.3872 101.697 23.2707 100.159 25.0488C103.956 24.7845 107.752 24.376 111.501 23.8474C110.756 22.5258 109.963 21.1801 109.098 19.8105L111.116 18.5609C113.279 21.7809 114.961 24.5923 116.162 26.9712L113.904 28.5571C113.543 27.7401 113.159 26.9472 112.726 26.1302C107.944 26.803 102.73 27.3316 97.0832 27.7401L96.4344 25.193C96.6987 25.0969 96.891 25.0248 97.0351 24.9287C98.4769 23.8714 100.351 21.036 102.658 16.3983H95.0167V13.8993ZM119.743 12.818H123.179V7.41137H127.961C128.225 6.90675 128.441 6.40214 128.586 5.87349L131.109 6.2099C130.964 6.64243 130.772 7.0269 130.532 7.41137H137.308V12.818H140.24V15.1248H137.308V17.4796C137.308 18.9694 136.467 19.7144 134.809 19.7144H133.103L132.478 17.4796C133.079 17.5277 133.632 17.5757 134.112 17.5757C134.593 17.5757 134.833 17.2393 134.833 16.5905V15.1248H128.393C129.811 15.8937 131.037 16.7107 132.07 17.5998L130.604 19.3779C129.643 18.3687 128.417 17.4556 126.904 16.5905L128.153 15.1248H125.39C124.981 17.0952 123.972 18.7532 122.362 20.0988L120.44 18.3687C121.689 17.4556 122.53 16.3743 122.915 15.1248H119.743V12.818ZM134.833 12.818V9.67012H129.306C130.484 10.2708 131.493 10.9196 132.358 11.6165L131.373 12.818H134.833ZM128.778 9.67012H125.606V12.818H130.436C129.667 12.1451 128.754 11.5204 127.696 10.9437L128.778 9.67012ZM138.414 20.2911V25.6015H140.865V27.8362H119.07V25.6015H121.353V20.2911H138.414ZM123.78 25.6015H126.183V22.5498H123.78V25.6015ZM128.61 25.6015H131.085V22.5498H128.61V25.6015ZM133.512 25.6015H135.987V22.5498H133.512V25.6015Z" fill="black" fill-opacity="0.9"/>
</svg>
