<?xml version="1.0" encoding="utf-8"?>
<svg width="104.47058px" height="96.37634px" viewBox="0 0 104.47058 96.37634" version="1.1" xmlns:xlink="http://www.w3.org/1999/xlink" xmlns="http://www.w3.org/2000/svg">
  <g id="tbox-new">
    <path d="M86.1787 56.3294C88.4947 56.3294 90.4416 58.0686 90.7016 60.37L93.7214 87.7583C93.7249 87.7904 93.7268 87.8225 93.727 87.8545L93.7238 87.9158L93.7336 88.079C93.8198 90.0934 93.1724 92.0192 91.8802 93.5041L91.7153 93.6874C90.2397 95.2746 88.1703 96.1763 86.0032 96.1763L60.5994 96.1763C58.4322 96.1763 56.3628 95.2746 54.8872 93.6874C53.4684 92.1613 52.7217 90.1337 52.8066 88.0585L52.8182 87.841L52.8055 87.8382L55.901 60.3699C56.161 58.0692 58.1068 56.3304 60.4227 56.3294L86.1787 56.3294L86.1787 56.3294ZM60.3515 86.0144L60.1651 86.04L59.9937 86.0788C59.9412 86.0927 59.8892 86.1085 59.8378 86.126L59.6854 86.1839L59.5815 86.2295L59.4418 86.3021C59.3038 86.3796 59.1769 86.4678 59.0602 86.5671L58.9375 86.679L58.8521 86.7681L58.7648 86.8661L58.6621 87.0012L58.6313 87.0442L58.5601 87.1564L58.4834 87.2942L58.4253 87.416L58.3765 87.5347L58.3426 87.6315L58.3035 87.7612L58.2843 87.8353L58.2454 88.0421C58.1592 88.6453 58.3082 89.259 58.6614 89.7555L58.7539 89.8771C59.2054 90.4326 59.8832 90.755 60.5994 90.7547L86.0034 90.7547C86.7449 90.7548 87.444 90.4089 87.8936 89.8192C88.3133 89.2689 88.4708 88.5652 88.3303 87.8924L88.2925 87.7373L88.2513 87.6048L88.2108 87.4951L88.1827 87.4281L88.1393 87.3336L88.0784 87.2196L88.0011 87.09L87.9433 87.0054L87.8911 86.9351L87.8286 86.857L87.7452 86.7616L87.6558 86.6704C87.5085 86.5277 87.3435 86.4047 87.1652 86.3043L87.0258 86.2319L86.9075 86.1794L86.765 86.1256C86.7136 86.1082 86.6617 86.0925 86.6093 86.0787L86.5017 86.0538L86.3377 86.0241L86.253 86.0139C86.1707 86.0055 86.088 86.0014 86.0051 86.0016L60.5994 86.0016C60.5167 86.0016 60.434 86.0059 60.3515 86.0144L60.3515 86.0144ZM85.3998 61.7519L61.2017 61.7519L59.0574 80.7315L59.1365 80.7153C59.5216 80.6421 59.9121 80.5981 60.3046 80.5839L60.5994 80.5788L86.0032 80.5788C86.5018 80.5788 86.9943 80.6256 87.4754 80.7174L87.5441 80.7315L85.3998 61.7519L85.3998 61.7519ZM78.8223 69.2117C80.3197 69.2117 81.5337 70.4257 81.5337 71.9231C81.5337 73.4206 80.3197 74.6346 78.8223 74.6346L67.7803 74.6346C66.2828 74.6346 65.0689 73.4206 65.0689 71.9231C65.0689 70.4257 66.2828 69.2117 67.7803 69.2117L78.8223 69.2117L78.8223 69.2117Z" id="形状" fill="#0444D9" fill-rule="evenodd" stroke="#0444D9" stroke-width="0.4" />
    <path d="M47.8235 0C54.5805 0 60.8146 2.22214 65.8398 5.97509C70.9921 9.82296 74.8738 15.2795 76.7452 21.5997C76.7939 21.764 76.8411 21.9286 76.8876 22.0931C77.0579 22.0954 77.2286 22.0993 77.3995 22.1048C84.9284 22.3452 91.7087 25.553 96.6005 30.5992C101.472 35.6244 104.471 42.4729 104.471 50.0294C104.471 53.8376 103.704 57.4656 102.324 60.7754C101.894 61.6682 101.151 62.3143 100.287 62.6401C99.4172 62.968 98.4256 62.9716 97.5082 62.576C96.5907 62.1804 95.9126 61.4566 95.5551 60.5991C95.1976 59.7416 95.1608 58.7505 95.5233 57.8258C96.4973 55.4027 97.047 52.7323 97.0588 50.0319C97.0782 44.4776 94.8794 39.4232 91.2876 35.7196C87.6958 32.0161 82.7112 29.6635 77.1621 29.5129L76.2442 29.4837C70.6284 29.5526 65.5463 31.8822 61.8714 35.6038C58.2064 39.3154 55.9412 44.4114 55.9412 50.0294C55.9412 51.0528 55.5264 51.9792 54.8557 52.6499C54.1851 53.3205 53.2586 53.7353 52.2353 53.7353C51.2119 53.7353 50.2855 53.3205 49.6148 52.6499C48.9442 51.9792 48.5294 51.0528 48.5294 50.0294C48.5294 43.7431 50.6052 37.9456 54.1083 33.2796C57.6994 28.4965 62.7898 24.902 68.6809 23.1888C68.9204 23.1192 69.1604 23.0529 69.4006 22.9892C69.3199 22.7469 69.2348 22.5055 69.1455 22.2651C67.5027 17.8447 64.5332 14.1216 60.7828 11.5088C57.0548 8.91164 52.5558 7.41176 47.8266 7.41177C41.9503 7.38585 36.5522 9.60938 32.4901 13.3024C28.428 16.9955 25.702 22.1581 25.17 28.0081L24.6809 33.2035L19.7516 34.9162C16.0628 36.1968 12.9809 38.574 10.8196 41.6071C8.65835 44.6403 7.41777 48.3295 7.41176 52.2353C7.41176 57.295 9.46986 61.8834 12.7932 65.2068C16.1166 68.5301 20.705 70.5882 25.7647 70.5882L43.4118 70.5882C44.4351 70.5882 45.3616 71.003 46.0322 71.6737C46.7028 72.3443 47.1176 73.2708 47.1176 74.2941C47.1176 75.3175 46.7028 76.2439 46.0322 76.9146C45.3616 77.5852 44.4351 78 43.4118 78L25.7647 78C18.6504 78 12.2093 75.116 7.54665 70.4533C2.88404 65.7907 -3.8147e-06 59.3496 -3.8147e-06 52.2353C-3.8147e-06 46.6816 1.75983 41.5446 4.75155 37.3438C7.82954 33.022 12.2109 29.6908 17.3206 27.9161C17.4643 27.8661 17.6084 27.8175 17.7525 27.7689C17.7644 27.6179 17.7775 27.4667 17.7917 27.3154C18.5162 19.6175 22.1301 12.7603 27.5377 7.8417C32.8941 2.96966 40.0108 0 47.8235 0L47.8235 0L47.8235 0Z" id="路径" fill="#0444D9" stroke="none" />
  </g>
</svg>