<?xml version="1.0" encoding="utf-8"?>
<svg width="38.61859px" height="29.607605px" viewBox="0 0 38.61859 29.607605" version="1.1" xmlns:xlink="http://www.w3.org/1999/xlink" xmlns="http://www.w3.org/2000/svg">
  <g id="disk-logo-with-text">
    <path d="M7.4349 10.172C8.32205 4.4107 13.2999 -1.66893e-06 19.309 -1.66893e-06C25.318 -1.66893e-06 30.2958 4.41061 31.183 10.1718C35.4571 11.2561 38.6186 15.1271 38.6186 19.7384C38.6186 24.9092 34.643 29.15 29.5808 29.573C29.3272 29.5941 29.0712 29.6057 28.813 29.6074L9.86917 29.6076C4.41858 29.6076 0 25.189 0 19.7384C0 15.1273 3.16122 11.2565 7.4349 10.172L7.4349 10.172ZM37.3312 19.7384C37.3312 15.4267 34.1514 11.8576 30.0089 11.2483C29.6159 5.68141 24.9754 1.2873 19.3085 1.2873C13.6415 1.2873 9.00091 5.68152 8.60807 11.2485C4.46624 11.8584 1.28715 15.4271 1.28715 19.7384C1.28715 24.478 5.12939 28.3203 9.86903 28.3203L21.4546 28.3203C21.482 28.3203 21.5094 28.3202 21.5368 28.3199L24.3761 28.3199L24.4202 28.3202L24.4583 28.3203L28.7493 28.3203C33.4889 28.3203 37.3312 24.478 37.3312 19.7384L37.3312 19.7384ZM24.4583 11.1565L26.985 11.1565C26.5582 7.29468 23.2841 4.29096 19.3085 4.29096C15.1381 4.29096 11.7397 7.59624 11.5899 11.7301L11.5899 14.1602L9.86903 14.1602C6.78826 14.1602 4.29081 16.6576 4.29081 19.7384C4.29081 22.8192 6.78826 25.3166 9.86903 25.3166L21.4546 25.3166C24.5353 25.3166 27.0327 22.8193 27.0329 19.7387L27.0329 18.0223L30.0365 18.0223L30.0364 19.7387C30.0364 21.8682 29.2607 23.8166 27.9764 25.3166L28.7493 25.3166C31.83 25.3166 34.3275 22.8192 34.3275 19.7384C34.3275 16.6576 31.83 14.1602 28.7493 14.1602L24.4583 14.1602C21.3776 14.1602 18.8802 16.6578 18.8801 19.7385L18.8801 21.4547L15.8765 21.4547L15.8765 19.7383C15.8765 14.9987 19.7187 11.1565 24.4583 11.1565L24.4583 11.1565Z" id="形状" fill="#0444D9" fill-rule="evenodd" stroke="none" />
  </g>
</svg>