<svg xmlns="http://www.w3.org/2000/svg" viewBox="0 0 48 48"><linearGradient id="itHRQdNU9sEbBE2XfJGH8a" x1="29.242" x2="33.758" y1="18.692" y2="44.308" gradientUnits="userSpaceOnUse"><stop offset="0" stop-color="#2aa4f4"/><stop offset="1" stop-color="#007ad9"/></linearGradient><path fill="url(#itHRQdNU9sEbBE2XfJGH8a)" d="M20,22v19c0,1.105,0.895,2,2,2h19c1.105,0,2-0.895,2-2V22c0-1.105-0.895-2-2-2H22 C20.895,20,20,20.895,20,22z"/><linearGradient id="itHRQdNU9sEbBE2XfJGH8b" x1="13.604" x2="13.604" y1="43" y2="37" gradientTransform="rotate(180 11.302 36.5)" gradientUnits="userSpaceOnUse"><stop offset=".478" stop-color="#ad4bd5"/><stop offset=".758" stop-color="#9f3dc8"/><stop offset=".787" stop-color="#9a38c4"/><stop offset=".868" stop-color="#9533c0"/><stop offset="1" stop-color="#912fbd"/></linearGradient><path fill="url(#itHRQdNU9sEbBE2XfJGH8b)" d="M8,30h2c0.552,0,1,0.448,1,1v5H7v-5C7,30.448,7.448,30,8,30z"/><linearGradient id="itHRQdNU9sEbBE2XfJGH8c" x1="7" x2="18.395" y1="38" y2="38" gradientUnits="userSpaceOnUse"><stop offset="0" stop-color="#c965eb"/><stop offset="1" stop-color="#c767e5"/></linearGradient><path fill="url(#itHRQdNU9sEbBE2XfJGH8c)" d="M18.233,37.605l-3.451-3.469C14.494,33.846,14,34.05,14,34.458V36H7c2,2.5,3.5,4,5.5,4H14 v1.542c0,0.408,0.494,0.612,0.782,0.323l3.451-3.469C18.45,38.176,18.45,37.824,18.233,37.605z"/><path d="M26,29h-6v-7c0-1.105,0.895-2,2-2h7v6C29,27.657,27.657,29,26,29z" opacity=".05"/><path d="M26,28.5h-6V22c0-1.105,0.895-2,2-2h6.5v6C28.5,27.381,27.381,28.5,26,28.5z" opacity=".05"/><linearGradient id="itHRQdNU9sEbBE2XfJGH8d" x1="14.242" x2="18.758" y1="3.692" y2="29.308" gradientUnits="userSpaceOnUse"><stop offset="0" stop-color="#a3ffff"/><stop offset=".223" stop-color="#9dfbff"/><stop offset=".53" stop-color="#8bf1ff"/><stop offset=".885" stop-color="#6ee0ff"/><stop offset="1" stop-color="#63daff"/></linearGradient><path fill="url(#itHRQdNU9sEbBE2XfJGH8d)" d="M26,5H7C5.895,5,5,5.895,5,7v19c0,1.105,0.895,2,2,2h19c1.105,0,2-0.895,2-2V7 C28,5.895,27.105,5,26,5z"/></svg>