<svg xmlns="http://www.w3.org/2000/svg" viewBox="0 0 64 64"><path fill="#7bbeeb" d="M57,59H31c-1.105,0-2-0.895-2-2V31c0-1.105,0.895-2,2-2h26c1.105,0,2,0.895,2,2v26 C59,58.105,58.105,59,57,59z"/><path fill="#64b4d8" d="M29,29v15h13c2.209,0,4-1.791,4-4V29H29z"/><path fill="#f6d397" d="M41,11v26c0,1.1-0.9,2-2,2H13c-1.1,0-2-0.9-2-2V11c0-1.1,0.9-2,2-2h26C40.1,9,41,9.9,41,11z"/><path fill="#f9e3ae" d="M16,12v24c0,1.657-1.343,3-3,3h0c-1.1,0-2-0.9-2-2V11c0-1.1,0.9-2,2-2h0C14.657,9,16,10.343,16,12z"/><path fill="#72caaf" d="M15.828,57l-2.657,2.657L16,62.485L23.485,55L16,47.515l-2.828,2.828L15.828,53H11 c-2.209,0-4-1.791-4-4v-6H3v6c0,4.418,3.582,8,8,8H15.828z"/><path fill="#8d6c9f" d="M57,28H42V11c0-1.65-1.35-3-3-3H13c-1.65,0-3,1.35-3,3v26c0,1.65,1.35,3,3,3h15v17 c0,1.65,1.35,3,3,3h26c1.65,0,3-1.35,3-3V31C60,29.35,58.65,28,57,28z M13,38c-0.55,0-1-0.45-1-1V11c0-0.55,0.45-1,1-1h26 c0.55,0,1,0.45,1,1v26c0,0.55-0.45,1-1,1H13z M58,57c0,0.55-0.45,1-1,1H31c-0.55,0-1-0.45-1-1V40h9c1.65,0,3-1.35,3-3v-7h15 c0.55,0,1,0.45,1,1V57z"/><path fill="#8d6c9f" d="M16.707 46.808c-.391-.391-1.023-.391-1.414 0l-2.829 2.829c-.188.188-.293.442-.293.707s.105.52.293.707l.95.95H11c-1.654 0-3-1.346-3-3v-6c0-.552-.448-1-1-1H3c-.552 0-1 .448-1 1v6c0 4.962 4.038 9 9 9h2.414l-.95.95c-.188.188-.293.442-.293.707s.105.52.293.707l2.829 2.829c.195.195.451.293.707.293s.512-.098.707-.293l7.485-7.485c.391-.391.391-1.023 0-1.414L16.707 46.808zM16 61.071l-1.415-1.415 1.95-1.95c.286-.286.372-.716.217-1.09C16.598 56.244 16.233 56 15.829 56H11c-3.86 0-7-3.14-7-7v-5h2v5c0 2.757 2.243 5 5 5h4.829c.404 0 .769-.244.924-.617.155-.374.069-.804-.217-1.09l-1.95-1.95L16 48.929 22.071 55 16 61.071zM17 13h-2c-.552 0-1 .448-1 1s.448 1 1 1h2c.552 0 1-.448 1-1S17.552 13 17 13zM17 18h-2c-.552 0-1 .448-1 1s.448 1 1 1h2c.552 0 1-.448 1-1S17.552 18 17 18zM17 23h-2c-.552 0-1 .448-1 1s.448 1 1 1h2c.552 0 1-.448 1-1S17.552 23 17 23zM17 28h-2c-.552 0-1 .448-1 1s.448 1 1 1h2c.552 0 1-.448 1-1S17.552 28 17 28zM17 33h-2c-.552 0-1 .448-1 1s.448 1 1 1h2c.552 0 1-.448 1-1S17.552 33 17 33z"/></svg>