<svg xmlns="http://www.w3.org/2000/svg" viewBox="0 0 48 48"><path fill="#1565c0" d="M23.75,42h17.5c0.967,0,1.75-0.783,1.75-1.75v-17.5c0-0.967-0.783-1.75-1.75-1.75h-17.5 C22.783,21,22,21.783,22,22.75v17.5C22,41.217,22.783,42,23.75,42z"/><path fill="#61d5e4" d="M8.75,27h17.5c0.967,0,1.75-0.783,1.75-1.75V7.75C28,6.783,27.217,6,26.25,6H8.75 C7.783,6,7,6.783,7,7.75v17.5C7,26.217,7.783,27,8.75,27z"/><path fill="#455a64" d="M19 37.5L13 33 13 42z"/><path fill="#455a64" d="M14,39H9.5C7.019,39,5,36.981,5,34.5V30h3v4.5C8,35.327,8.673,36,9.5,36H14V39z"/></svg>